<svg xmlns="http://www.w3.org/2000/svg" viewBox="0 0 100 100" fill="currentColor">
  <g transform="translate(50,89.6) scale(0.0732,-0.0732)">
    <path d="M635 1183 c-113 -15 -227 -81 -295 -172 -94 -125 -112 -270 -61 -487 17 -72 31 -147 31 -166 0 -19 5 -39 12 -46 26 -26 111 -7 161 36 15 14 22 13 70 -14 48 -27 60 -29 153 -29 96 0 103 2 177 38 183 90 282 277 249 468 -42 244 -255 404 -497 372z m126 -225 c52 -15 117 -73 140 -122 11 -24 19 -64 19 -96 0 -154 -164 -262 -310 -204 -38 15 -42 15 -60 -1 -53 -48 -84 20 -78 170 3 77 9 109 25 140 54 103 155 146 264 113z"/>
  </g>
</svg>
